<svg width="512" height="512" viewBox="0 0 512 512" fill="none" xmlns="http://www.w3.org/2000/svg">
    <path d="M0 169.984C0 30.0022 30.0022 0 169.984 0H342.016C481.998 0 512 30.0022 512 169.984V342.016C512 481.998 481.998 512 342.016 512H169.984C30.0022 512 0 481.998 0 342.016V169.984Z"
          fill="#FFA800"/>
    <path d="M127 375.5C144.2 375.5 159.3 372 172.3 365C185.4 358 195.6 348.15 202.9 335.45C210.3 322.75 214 307.85 214 290.75V155H177.4V289.85C177.4 300.55 175.05 309.75 170.35 317.45C165.75 325.15 159.6 331.1 151.9 335.3C144.3 339.4 136 341.45 127 341.45C118.3 341.45 110.1 339.4 102.4 335.3C94.7 331.2 88.45 325.3 83.65 317.6C78.95 309.9 76.6 300.65 76.6 289.85V155L40 155.3V290.75C40 307.85 43.65 322.75 50.95 335.45C58.35 348.15 68.6 358 81.7 365C94.8 372 109.9 375.5 127 375.5ZM255.918 371H289.818V232.55L355.968 371H370.368L436.668 232.55V371H470.418V155H437.868L363.168 308L288.468 155H255.918V371Z"
          fill="white"/>
</svg>
